HIERARCHY
ROOT Hips
{
  OFFSET -33.9132 29.2015 117.021
  CHANNELS 6 Xposition Yposition Zposition Zrotation Xrotation Yrotation
  JOINT LeftUpLeg
  {
    OFFSET 8.64259 1.95398 -2.38835
    CHANNELS 3 Zrotation Xrotation Yrotation
    JOINT LeftLeg
    {
      OFFSET 43.7702 0 0
      CHANNELS 3 Zrotation Xrotation Yrotation
      JOINT LeftFoot
      {
        OFFSET 40.6238 0 0
        CHANNELS 3 Zrotation Xrotation Yrotation
        JOINT LeftToeBase
        {
          OFFSET 12.7242 0 0
          CHANNELS 3 Zrotation Xrotation Yrotation
          End Site
          {
            OFFSET 0 0 0
          }
        }
      }
    }
  }
  JOINT RightUpLeg
  {
    OFFSET -8.2249 1.95398 -2.59336
    CHANNELS 3 Zrotation Xrotation Yrotation
    JOINT RightLeg
    {
      OFFSET 43.5653 0 0
      CHANNELS 3 Zrotation Xrotation Yrotation
      JOINT RightFoot
      {
        OFFSET 40.6238 0 0
        CHANNELS 3 Zrotation Xrotation Yrotation
        JOINT RightToeBase
        {
          OFFSET 12.7242 0 0
          CHANNELS 3 Zrotation Xrotation Yrotation
          End Site
          {
            OFFSET 0 0 0
          }
        }
      }
    }
  }
  JOINT Spine
  {
    OFFSET 0.165834 0.87714 6.61349
    CHANNELS 3 Zrotation Xrotation Yrotation
    JOINT Spine1
    {
      OFFSET 7.38963 1.71661e-005 0
      CHANNELS 3 Zrotation Xrotation Yrotation
      JOINT Spine2
      {
        OFFSET 11.9445 1.14441e-005 0
        CHANNELS 3 Zrotation Xrotation Yrotation
        JOINT Spine3
        {
          OFFSET 14.7254 4.19617e-005 0
          CHANNELS 3 Zrotation Xrotation Yrotation
          JOINT Spine4
          {
            OFFSET 10.9679 0 0
            CHANNELS 3 Zrotation Xrotation Yrotation
            JOINT RightShoulder
            {
              OFFSET 2.46616 -1.6653 3.69651
              CHANNELS 3 Zrotation Xrotation Yrotation
              JOINT RightArm
              {
                OFFSET 13.0012 0 0
                CHANNELS 3 Zrotation Xrotation Yrotation
                JOINT RightForeArm
                {
                  OFFSET 28.7848 1.62311e-005 0
                  CHANNELS 3 Zrotation Xrotation Yrotation
                  JOINT RightHand
                  {
                    OFFSET 26.5688 1.62095e-005 0
                    CHANNELS 3 Zrotation Xrotation Yrotation
                    End Site
                    {
                      OFFSET 0 0 0
                    }
                  }
                }
              }
            }
            JOINT LeftShoulder
            {
              OFFSET 2.38034 -1.29275 -3.7523
              CHANNELS 3 Zrotation Xrotation Yrotation
              JOINT LeftArm
              {
                OFFSET 16.3182 6.07031e-005 0
                CHANNELS 3 Zrotation Xrotation Yrotation
                JOINT LeftForeArm
                {
                  OFFSET 27.0901 0 0
                  CHANNELS 3 Zrotation Xrotation Yrotation
                  JOINT LeftHand
                  {
                    OFFSET 24.5451 1.51738e-005 0
                    CHANNELS 3 Zrotation Xrotation Yrotation
                    End Site
                    {
                      OFFSET 0 0 0
                    }
                  }
                }
              }
            }
            JOINT Neck
            {
              OFFSET 5.0226 -0.0266342 0
              CHANNELS 3 Zrotation Xrotation Yrotation
              JOINT Head
              {
                OFFSET 6.69364 2.86102e-005 0
                CHANNELS 3 Zrotation Xrotation Yrotation
                End Site
                {
                  OFFSET 0 0 0
                }
              }
            }
          }
        }
      }
    }
  }
}
MOTION
Frames:	18
Frame Time:	0.0416667
24.1397 100.093 -335.298 91.9512 -87.9721 91.2761 -171.622 -3.89287 94.2332 -11.7773 12.5079 -0.651619 70.2683 6.52923 -2.44483 34.7719 0.00483144 7.44389 175.068 -6.16351 92.9301 -11.8871 -1.19609 -0.123916 73.7406 -10.0398 -1.1539 22.51 1.15241 5.67923 -0.225332 7.90925 -90.2965 11.0538 -0.586 -0.533529 -0.617141 -0.608909 -0.507226 -23.152 -0.398562 -0.68497 -3.13934 -0.398566 -0.684976 92.1066 -27.3529 -103.447 49.0617 4.4258 32.2897 -32.2675 -30.888 -49.7209 -27.5856 6.69852 -32.6308 -89.0015 -47.2195 79.6553 -19.5717 6.29351 -10.0971 -14.0316 3.34615 -13.9958 22.7672 4.08023 14.1674 15.8064 -0.868799 -4.63608 -3.31538 0.421779 3.01819 
24.1566 99.7214 -334.99 75.7346 -85.6057 73.4904 -173.598 -2.23558 91.8801 -13.2816 12.3236 0.411224 70.784 7.83185 -1.84062 35.8545 0.499136 7.64137 173.597 -3.67023 91.2886 -14.9771 -0.491518 0.543764 75.5131 -10.435 -1.50882 23.0045 0.578943 6.91982 -0.510243 7.8224 -90.0901 11.229 -1.05736 -0.0750106 -0.441491 -1.05964 -0.0284038 -22.9797 -0.985937 -0.389351 -2.96707 -0.985935 -0.389364 91.9915 -27.813 -103.526 48.8332 4.86489 37.4737 -34.0031 -29.1809 -53.1925 -28.3945 7.25534 -33.9621 -87.6213 -45.0298 81.3728 -20.3623 10.1973 -5.52102 -8.33259 13.6255 -20.4631 36.5858 -4.20412 -16.663 16.5124 -1.11167 -6.57213 -3.49484 0.749145 3.85408 
23.9023 99.1443 -334.222 74.4446 -84.9071 71.6972 -174.397 -0.603905 91.2512 -16.1116 11.5375 0.80397 72.4845 10.6001 1.15296 36.1453 1.09648 6.37326 173.141 -2.40694 90.9722 -18.2148 0.195209 0.775147 77.7349 -11.0089 -1.15371 23.3788 0.803703 5.66085 -0.542228 7.85601 -90.1497 11.1611 -1.14873 -0.185613 -0.509361 -1.15578 -0.134884 -23.0479 -1.03983 -0.522306 -3.03522 -1.03983 -0.522311 92.4935 -26.7511 -102.844 49.4517 4.8922 41.641 -35.5304 -28.184 -55.7499 -30.8152 7.47827 -32.4168 -86.1671 -45.7394 83.812 -18.6631 14.1663 -2.91385 10.6088 40.7756 -30.5798 17.2271 -6.29115 -35.8271 17.5009 -0.816169 -4.61463 -3.4547 0.536554 2.48703 
23.5024 98.6225 -333.124 73.9147 -83.6114 71.2816 -174.378 2.64592 91.5955 -23.3295 11.243 0.79071 72.9734 10.8892 1.71423 36.2727 0.778638 7.46234 173.307 -2.59841 91.5059 -18.7778 2.40971 0.986764 79.2722 -11.255 0.245136 23.3116 0.516314 6.72067 -0.5477 7.86359 -90.2749 11.1451 -1.21779 -0.428587 -0.525368 -1.23547 -0.374577 -23.0635 -1.03268 -0.7748 -3.05088 -1.03268 -0.774794 92.4107 -26.2166 -103.206 49.9921 5.07023 44.6041 -38.2554 -28.9476 -57.8838 -34.231 7.43377 -29.4619 -86.4011 -46.0986 83.5013 -18.9335 15.8045 1.23983 13.7816 36.696 -35.358 14.82 -6.3102 -41.5906 17.7251 -0.784177 -3.03214 -3.00785 0.123027 1.70923 
23.1739 98.3433 -332.154 77.6235 -79.7177 74.5561 -175.968 9.44417 90.4273 -34.2615 8.54219 1.86111 72.56 9.83956 1.18343 34.6465 0.83548 4.99495 172.896 -3.2968 91.9196 -17.9778 5.21794 1.76394 79.6779 -11.7552 -1.20055 23.1794 0.488949 6.99332 -0.81185 7.89439 -90.3268 11.082 -1.76754 -0.479454 -0.587761 -1.78693 -0.401185 -23.13 -1.54172 -0.988607 -3.11732 -1.54171 -0.988602 92.2665 -25.9713 -103.6 49.7701 5.3707 46.1758 -41.5256 -30.1904 -60.0103 -35.1142 7.74016 -29.7592 -86.1264 -45.1693 83.7819 -20.3305 17.6544 4.33088 15.7334 33.6335 -38.4619 15.954 -7.37231 -44.6928 18.8937 -1.53949 -3.43731 -2.98945 -0.452255 2.59119 
22.9306 97.7907 -330.941 78.8897 -76.1652 75.6218 -177.216 15.0093 89.3841 -43.2834 10.4437 2.40227 72.0868 10.3022 4.97869 33.0082 0.911749 2.64381 172.864 -3.72918 92.6037 -18.1242 9.65188 2.32058 81.4107 -11.5186 0.090584 23.1445 1.07764 5.06181 -0.933098 7.95651 -90.4136 10.9559 -2.04907 -0.628067 -0.713496 -2.07472 -0.537246 -23.2577 -1.76556 -1.21499 -3.24501 -1.76557 -1.21502 91.3989 -26.7355 -105.153 50.2108 5.23843 47.202 -39.2907 -28.4489 -59.3244 -38.2885 8.12742 -28.6993 -86.2183 -43.7746 83.3987 -22.0287 18.7537 6.66065 17.9133 31.3964 -41.2752 16.3841 -7.88483 -46.2867 20.2625 -2.64417 -4.29787 -2.20278 -1.17929 3.9094 
22.6703 97.2911 -329.418 76.886 -73.8786 73.4324 -177.502 20.6135 87.887 -50.5094 8.02178 2.29843 72.8849 10.6876 5.44942 30.8574 0.487568 1.12909 173.268 -4.00311 93.237 -17.2943 11.4951 2.37147 81.628 -10.9742 0.238359 24.2285 0.662172 4.9465 -0.863688 7.91003 -90.4786 11.0477 -1.94108 -0.765516 -0.621965 -1.9729 -0.679323 -23.164 -1.62129 -1.31359 -3.15136 -1.62128 -1.31359 91.4943 -27.0986 -104.815 50.3633 4.56339 47.5766 -40.1011 -27.3804 -61.013 -40.7477 8.08391 -27.0639 -86.268 -43.3949 83.2528 -22.6877 20.8835 9.49703 19.6721 29.0746 -43.8157 18.3914 -8.65211 -45.697 21.3555 -3.79801 -4.54252 -2.36681 -2.169 4.57353 
22.3946 96.7142 -327.745 73.3228 -72.9351 69.9489 -176.564 26.0146 86.4107 -55.8861 5.26214 1.58743 73.8379 10.6524 4.31141 30.0985 0.193821 0.996435 174.142 -4.77047 94.2012 -14.954 11.2773 1.9352 81.2076 -11.3646 -1.7787 25.3959 -0.34358 7.00373 -0.657464 7.8896 -90.6396 11.0863 -1.60541 -1.11755 -0.584089 -1.65304 -1.04582 -23.1204 -1.19536 -1.54837 -3.10775 -1.19536 -1.54836 91.4154 -26.3079 -105.282 50.1158 3.19682 48.3466 -39.224 -23.5095 -63.8031 -41.0895 8.11433 -26.9336 -86.0279 -44.7582 83.8697 -21.8528 22.4029 11.291 21.7913 28.796 -45.5723 21.6038 -9.93702 -45.0874 23.2215 -4.46478 -2.80022 -3.12779 -3.3513 3.79647 
22.2069 96.3402 -325.942 66.5039 -73.2114 63.068 -174.74 30.9901 84.4379 -58.5808 3.72985 0.354287 74.1946 10.4004 2.69204 29.6853 0.223395 0.456446 174.574 -2.77905 94.9807 -16.432 4.15719 1.2394 77.6624 -10.3498 -10.9317 32.4204 -1.00828 -3.09315 -0.284015 7.8001 -90.6653 11.2674 -0.874891 -1.23782 -0.403821 -0.928531 -1.19814 -22.9351 -0.462485 -1.4435 -2.92246 -0.462485 -1.44352 90.8422 -27.0775 -106.183 48.8408 1.95137 47.9378 -35.2256 -18.2631 -66.0134 -45.4922 8.34148 -25.1848 -86.5753 -44.4942 82.9484 -22.479 20.8632 14.9345 24.0173 30.3758 -46.4797 24.6492 -11.6486 -46.269 23.8447 -5.40546 -2.97432 -2.74762 -4.16009 4.22785 
21.6814 96.1238 -323.766 60.2478 -74.1043 57.2033 -172.391 34.7613 83.1987 -59.5861 5.82264 -0.928474 74.3558 10.6452 3.13947 29.7323 0.337846 0.234364 174.704 1.02132 96.9343 -23.5723 0.00328982 0.728773 65.6777 2.19811 -15.7629 53.5944 -11.03 -5.41074 0.124388 7.82289 -90.7556 11.226 -0.104042 -1.4955 -0.445784 -0.169745 -1.48948 -22.9743 0.350183 -1.45765 -2.96164 0.35018 -1.45765 90.6019 -27.3222 -106.585 45.4433 0.82965 48.1625 -30.8954 -11.3028 -72.2828 -44.8952 8.07448 -24.7214 -86.0139 -44.5364 83.857 -23.8541 22.3208 18.2016 23.348 26.3858 -47.8621 26.1398 -12.3817 -46.4818 25.1997 -5.90225 -2.50584 -2.77483 -4.75997 4.43087 
21.257 95.2663 -321.705 50.0912 -74.3315 46.3015 -169.326 39.9469 80.0129 -60.5556 7.36201 -2.45304 75.2049 10.9066 2.68249 31.0048 0.15819 2.13997 174.148 6.60012 95.2329 -31.5387 -3.15797 0.407279 54.0514 15.298 -12.9113 73.4652 -19.9506 -2.50608 0.51195 7.73857 -90.6973 11.398 0.693431 -1.45717 -0.273583 0.628626 -1.48627 -22.8054 1.09927 -1.18146 -2.79279 1.09927 -1.18146 90.7353 -27.9082 -106.08 40.2199 3.37006 43.5176 -34.4701 -11.1925 -75.1523 -51.1644 9.7895 -25.7221 -86.132 -44.4508 83.6531 -25.3755 21.2379 22.7803 24.9673 25.7535 -49.2376 28.5415 -13.5965 -46.7401 26.5548 -6.15523 -1.96711 -2.65865 -5.15588 4.64599 
21.492 94.4289 -318.913 55.482 -75.3402 53.9176 -168.986 42.1844 80.0662 -62.4601 8.62812 -2.39777 76.5315 11.49 3.29594 31.8932 0.637674 1.98043 174.681 1.92485 96.9787 -27.6448 -1.80779 1.12049 37.3428 26.264 -6.01668 93.5548 -25.6859 6.37715 0.656205 8.05042 -91.1199 10.7783 0.7899 -2.3035 -0.894453 0.687774 -2.33602 -23.4191 1.44557 -1.95982 -3.4065 1.44557 -1.95982 90.7787 -27.8507 -106.013 35.4059 5.01649 39.2627 -29.2024 -6.12778 -80.429 -50.3975 11.1537 -28.8499 -86.0115 -45.4191 84.0049 -26.3326 20.2501 27.6019 26.3347 24.6269 -50.6276 29.86 -14.4093 -47.2878 27.3339 -5.70947 -0.0923255 -2.50384 -5.4081 3.65114 
21.5387 93.3516 -316.037 56.6281 -75.8447 55.5015 -168.072 45.1329 78.1125 -63.1567 8.43124 -2.73514 77.3958 11.8306 3.50667 31.3996 0.680244 1.28179 175.33 -3.66719 96.6343 -20.6193 0.761613 1.23624 23.2672 31.8195 -0.0645997 108.302 -26.868 15.4423 0.782665 8.23921 -91.237 10.4002 0.992477 -2.54451 -1.27298 0.879559 -2.58571 -23.7962 1.71116 -2.12888 -3.78354 1.71116 -2.1289 90.2685 -28.6606 -106.739 28.146 12.7795 35.4079 -37.1551 -4.12937 -86.8154 -45.7994 10.9351 -31.064 -85.6123 -44.123 84.4364 -28.6539 19.9079 32.6063 28.542 23.7029 -52.2898 34.1687 -15.9211 -45.8003 27.9434 -5.50681 -0.0630282 -2.23381 -5.2075 4.32056 
21.6213 91.946 -313.318 54.5168 -76.5185 52.9063 -166.54 48.6013 75.0474 -63.494 6.43049 -3.25516 78.7521 12.114 2.45304 32.1371 1.36567 0.367644 175.008 -8.32654 95.1682 -15.1933 4.28987 1.51787 14.7383 34.2028 2.47236 118.525 -24.7328 24.4773 0.978933 8.38904 -91.2668 10.105 1.37368 -2.63013 -1.56802 1.25663 -2.68799 -24.0942 2.10046 -2.096 -4.08155 2.10046 -2.096 90.5687 -28.2505 -106.29 25.0275 17.7073 26.508 -35.1432 -2.26465 -89.543 -45.0219 11.5633 -33.0172 -85.5738 -43.5044 84.3997 -29.7116 20.7501 36.7279 29.8584 21.1508 -54.1163 33.8428 -16.2299 -47.0311 28.3176 -5.49795 1.29736 -1.63794 -5.69339 4.22488 
21.6265 90.4517 -310.484 45.8767 -78.2326 44.026 -164.88 52.1261 73.1155 -63.3689 6.4177 -3.819 80.5387 13.4175 2.8799 32.2176 1.31585 0.596636 174.369 -11.6137 93.7391 -13.0099 5.24783 1.46203 12.904 34.0294 2.23051 122.423 -21.7951 30.4164 1.3829 8.52067 -91.2386 9.85328 2.19483 -2.63322 -1.81869 2.07685 -2.72721 -24.3566 2.8846 -1.85195 -4.34397 2.8846 -1.85196 90.865 -25.4528 -106.789 23.6777 21.7263 18.9119 -32.3248 -0.952336 -91.7934 -46.2876 12.0837 -33.3788 -85.2308 -42.387 84.7838 -30.4105 22.4549 40.6708 33.0422 18.694 -56.7416 36.8264 -17.871 -47.4224 29.5246 -5.22697 3.27066 -2.01154 -6.23424 3.62469 
21.6796 89.2986 -307.286 30.0294 -79.5878 26.9295 -163.564 54.8969 71.6412 -62.1451 7.65797 -4.44933 82.2344 14.4725 2.06698 30.3855 0.0490251 1.66462 172.623 -12.9094 90.6166 -13.6726 3.47104 1.13612 14.5475 32.5045 1.776 122.567 -19.0445 34.4797 1.8581 8.61938 -90.9819 9.66463 3.26064 -2.20137 -2.00434 3.16062 -2.34279 -24.5673 3.7713 -1.11874 -4.55464 3.77132 -1.11874 91.3611 -21.6459 -107.348 23.1917 25.076 13.2769 -29.9236 0.346825 -93.7418 -47.1445 12.4769 -33.6849 -85.0355 -40.5576 84.8176 -31.3799 24.2941 43.6114 37.1585 18.2069 -58.0107 37.6417 -19.1233 -49.2216 31.4537 -5.33467 4.2313 -2.86639 -6.806 3.25484 
21.6743 88.6042 -303.429 11.9998 -79.7981 7.20678 -163.484 56.6531 71.1656 -60.6888 10.2273 -4.78743 81.8928 14.5214 2.32025 24.7847 -1.25005 -1.27321 170.879 -13.8725 87.2548 -14.2936 1.77118 0.383218 18.4856 29.7943 0.954272 118.983 -16.5286 37.5579 2.31685 8.71447 -90.6682 9.47851 4.31878 -1.65049 -2.18655 4.24195 -1.83923 -24.7788 4.61477 -0.273634 -4.76616 4.61476 -0.27364 92.1822 -18.5245 -106.862 23.2695 28.1223 10.1902 -32.026 1.82821 -96.4868 -48.7258 11.2796 -30.0993 -85.5597 -40.0368 83.8429 -30.6497 24.9965 45.3079 36.9495 15.49 -58.5384 38.8209 -20.0966 -50.1147 34.2163 -5.91014 4.49193 -3.76774 -7.58309 3.69695 
21.5064 88.2834 -298.816 -2.02535 -78.5849 -8.43873 -164.338 57.0922 71.8685 -59.0814 13.7567 -4.95839 80.5796 13.9122 2.63313 23.8397 -2.62114 0.710547 169.448 -14.0694 84.3695 -15.1896 -0.777315 -0.432115 23.2485 26.0803 0.598008 112.208 -15.2544 38.4793 2.53763 8.74668 -90.1918 9.40263 4.97397 -0.74998 -2.25914 4.93614 -0.968698 -24.87 4.96884 0.783384 -4.85734 4.96884 0.783378 92.6177 -14.7131 -107.676 23.8427 28.2953 9.3517 -32.4524 3.09204 -98.6943 -53.4736 10.581 -26.2701 -84.7881 -37.5312 84.7447 -31.3923 24.5072 45.4981 36.2892 13.835 -59.2199 39.0351 -20.5252 -50.8896 38.6412 -5.83814 3.94988 -5.84211 -7.4661 3.17515 
